<?xml version="1.0" encoding="UTF-8" standalone="no"?>
<!-- Generator: Adobe Illustrator 18.0.0, SVG Export Plug-In . SVG Version: 6.00 Build 0)  -->

<svg
   version="1.1"
   id="Layer_1"
   x="0px"
   y="0px"
   viewBox="0 0 350.79999 671.55078"
   enable-background="new 0 0 365 560"
   xml:space="preserve"
   sodipodi:docname="marker_red.svg"
   width="350.79999"
   height="671.55078"
   inkscape:version="1.1.2 (b8e25be833, 2022-02-05)"
   xmlns:inkscape="http://www.inkscape.org/namespaces/inkscape"
   xmlns:sodipodi="http://sodipodi.sourceforge.net/DTD/sodipodi-0.dtd"
   xmlns="http://www.w3.org/2000/svg"
   xmlns:svg="http://www.w3.org/2000/svg"><defs
   id="defs9"><filter
     inkscape:collect="always"
     style="color-interpolation-filters:sRGB"
     id="filter984"
     x="-0.2919496"
     y="-0.90447128"
     width="1.5838992"
     height="2.8089426"><feGaussianBlur
       inkscape:collect="always"
       stdDeviation="26.156035"
       id="feGaussianBlur986" /></filter></defs><sodipodi:namedview
   id="namedview7"
   pagecolor="#ffffff"
   bordercolor="#666666"
   borderopacity="1.0"
   inkscape:pageshadow="2"
   inkscape:pageopacity="0.0"
   inkscape:pagecheckerboard="0"
   showgrid="false"
   fit-margin-top="0"
   fit-margin-left="0"
   fit-margin-right="0"
   fit-margin-bottom="0"
   inkscape:zoom="0.73482143"
   inkscape:cx="-78.930741"
   inkscape:cy="381.04496"
   inkscape:window-width="1920"
   inkscape:window-height="1009"
   inkscape:window-x="-8"
   inkscape:window-y="-8"
   inkscape:window-maximized="1"
   inkscape:current-layer="Layer_1" />
<ellipse
   style="mix-blend-mode:normal;fill:#666666;fill-opacity:1;stroke-width:3.526;filter:url(#filter984)"
   id="path884"
   cx="170.77461"
   cy="574.07397"
   rx="107.50911"
   ry="34.702309" /><g
   id="g4"
   style="fill:#cd3322;fill-opacity:1"
   transform="translate(-7.5,-7.7)">
	<path
   fill="#00AEEF"
   d="m 182.9,551.7 c 0,0.1 0.2,0.3 0.2,0.3 0,0 175.2,-269 175.2,-357.4 C 358.3,64.5 269.5,7.9 182.9,7.7 96.3,7.9 7.5,64.5 7.5,194.6 7.5,283 182.8,552 182.8,552 c 0,0 0.1,-0.3 0.1,-0.3 z M 122.2,187.2 c 0,-33.6 27.2,-60.8 60.8,-60.8 33.6,0 60.8,27.2 60.8,60.8 0,33.6 -27.3,60.8 -60.9,60.8 -33.5,0 -60.7,-27.2 -60.7,-60.8 z"
   id="path2"
   style="fill:#cd3322;fill-opacity:1" />
</g>
</svg>
