<?xml version="1.0" encoding="UTF-8" standalone="no"?>
<!-- Created with Inkscape (http://www.inkscape.org/) -->

<svg
   width="97.356186mm"
   height="70.097054mm"
   viewBox="0 0 97.356186 70.097054"
   version="1.1"
   id="svg5"
   inkscape:version="1.1.2 (b8e25be833, 2022-02-05)"
   sodipodi:docname="workInProgress.svg"
   xmlns:inkscape="http://www.inkscape.org/namespaces/inkscape"
   xmlns:sodipodi="http://sodipodi.sourceforge.net/DTD/sodipodi-0.dtd"
   xmlns="http://www.w3.org/2000/svg"
   xmlns:svg="http://www.w3.org/2000/svg">
  <sodipodi:namedview
     id="namedview7"
     pagecolor="#ffffff"
     bordercolor="#666666"
     borderopacity="1.0"
     inkscape:pageshadow="2"
     inkscape:pageopacity="0.0"
     inkscape:pagecheckerboard="0"
     inkscape:document-units="mm"
     showgrid="false"
     inkscape:zoom="0.733172"
     inkscape:cx="-88.655868"
     inkscape:cy="88.655868"
     inkscape:window-width="1920"
     inkscape:window-height="1009"
     inkscape:window-x="-8"
     inkscape:window-y="-8"
     inkscape:window-maximized="1"
     inkscape:current-layer="layer1"
     fit-margin-top="0"
     fit-margin-left="0"
     fit-margin-right="0"
     fit-margin-bottom="0" />
  <defs
     id="defs2">
    <clipPath
       clipPathUnits="userSpaceOnUse"
       id="clipPath5166">
      <path
         d="M 0,841.89 H 595.276 V 0 H 0 Z"
         id="path5164" />
    </clipPath>
  </defs>
  <g
     inkscape:label="Warstwa 1"
     inkscape:groupmode="layer"
     id="layer1"
     transform="translate(-45.416049,-111.12857)">
    <path
       style="fill:#653d91;fill-opacity:1;stroke:none;stroke-width:17.3601;stroke-opacity:0.533333"
       d="m 352.25153,676.55251 c -0.33517,-0.20715 -0.47359,-0.73056 -0.30759,-1.16314 0.29937,-0.78016 1.23483,-8.64273 2.24162,-18.84092 0.28802,-2.91745 0.72006,-6.49797 0.96009,-7.9567 0.50912,-3.09408 1.44659,-10.6924 2.91529,-23.62899 0.78982,-6.95683 2.10482,-17.82377 2.8885,-23.87011 0.24064,-1.85656 0.67261,-5.43708 0.95994,-7.9567 0.28732,-2.51962 0.72082,-6.10014 0.96332,-7.9567 0.90152,-6.90183 2.46931,-19.65716 3.91192,-31.82681 0.81744,-6.89581 1.67681,-14.05684 1.90971,-15.9134 1.22777,-9.78704 1.59464,-13.22089 1.62287,-15.19007 l 0.0311,-2.17001 -10.9706,-0.12961 -10.97061,-0.12961 v -2.64318 -2.64318 h 76.19145 76.19145 v 2.66669 2.66669 l -10.67192,-0.0479 c -6.19557,-0.0278 -10.86482,0.14499 -11.1318,0.41197 -0.44075,0.44075 -0.089,4.88834 1.11292,14.07377 0.26029,1.98918 0.67609,5.35269 0.92399,7.47448 0.24791,2.12179 0.66097,5.5938 0.91792,7.71559 0.25695,2.12179 0.69333,5.9193 0.96974,8.43892 0.62739,5.71904 1.2908,11.16083 1.96939,16.15452 0.28833,2.12179 0.71592,5.5938 0.95019,7.71559 0.23428,2.12179 1.31101,11.01883 2.39274,19.7712 1.08173,8.75237 2.39924,19.60242 2.92782,24.11122 1.12297,9.57904 1.79152,14.77146 2.42861,18.86235 0.25259,1.62191 0.45926,3.72112 0.45926,4.66489 0,0.94378 0.20765,2.76327 0.46145,4.04331 0.2538,1.28005 0.69672,4.49736 0.98427,7.1496 0.28755,2.65223 0.82952,7.30955 1.20439,10.34958 0.37487,3.04003 0.6372,5.56869 0.58296,5.61924 -0.13758,0.12822 -2.39113,0.30377 -3.06895,0.23907 -0.52148,-0.0498 -0.78171,-1.33259 -2.11406,-10.4212 -0.27216,-1.85656 -0.70331,-4.67758 -0.9581,-6.26892 -0.67729,-4.2301 -6.26258,-40.97023 -6.74437,-44.36464 -1.1282,-7.94857 -2.08483,-14.26366 -2.88543,-19.04786 -0.63739,-3.80899 -1.30094,-8.26905 -1.90116,-12.77894 -0.2471,-1.85657 -0.91159,-6.30509 -1.47666,-9.8856 -1.96058,-12.42311 -2.37267,-15.10807 -3.88564,-25.31678 -1.21367,-8.18923 -2.26412,-15.15375 -2.87297,-19.04786 -0.26954,-1.72395 -0.62455,-4.21947 -0.78891,-5.54558 -0.56603,-4.56708 4.68846,-4.09891 -46.00443,-4.09891 H 379.731 l -0.43817,1.08501 c -0.241,0.59675 -0.89098,4.23151 -1.44442,8.07725 -0.55343,3.84574 -1.2196,8.34851 -1.48038,10.00616 -0.80682,5.12853 -1.38329,8.89468 -1.93757,12.65839 -0.87132,5.91648 -1.40159,9.46032 -1.91215,12.77894 -0.47875,3.11191 -0.96087,6.30595 -1.9289,12.77895 -0.2773,1.85428 -0.71286,4.72861 -0.96791,6.3874 -0.25504,1.65879 -0.8963,5.83699 -1.42501,9.28489 -0.52872,3.4479 -1.50271,9.74093 -2.16444,13.98451 -0.66172,4.24357 -1.85635,12.16411 -2.65472,17.60118 -0.79837,5.43708 -1.66387,11.18761 -1.92334,12.77895 -0.25947,1.59134 -0.705,4.52085 -0.99007,6.51003 -0.65085,4.54157 -1.34946,9.08059 -1.94827,12.65839 -0.85317,5.09763 -1.3641,8.29157 -1.87067,11.69394 -1.26013,8.46375 -1.15341,8.1044 -2.51484,8.46817 -0.69806,0.18652 -1.54344,0.16965 -1.87861,-0.0375 z"
       id="path5881"
       transform="scale(0.26458333)" />
    <path
       style="fill:#2a3757;fill-opacity:1;stroke:none;stroke-width:17.3601;stroke-opacity:0.533333"
       d="m 321.32254,614.90598 c -1.01311,-0.69212 -6.2734,-26.3847 -7.36973,-35.99565 -0.30254,-2.65223 -0.66407,-5.47324 -0.8034,-6.26891 -0.13932,-0.79567 -0.454,-4.26769 -0.69927,-7.71559 -0.24528,-3.44791 -0.67462,-8.87293 -0.95408,-12.05561 -0.27946,-3.18268 -0.63317,-9.64532 -0.78603,-14.36141 -0.33298,-10.27387 -0.30635,-10.2319 -5.00112,-7.88259 -5.16994,2.58709 -8.05974,6.82948 -12.68845,18.62732 l -1.04056,2.65223 -3.3721,0.34841 c -7.12109,0.73577 -13.64821,1.43803 -17.3566,1.86744 -2.12179,0.24569 -5.91931,0.65555 -8.43893,0.91079 -9.30797,0.94291 -14.3388,1.46461 -18.80675,1.95027 -2.51962,0.27388 -6.34873,0.62589 -8.50913,0.78226 l -3.92801,0.28429 -0.35138,-5.15527 c -0.37251,-5.46518 7.8e-4,-15.29399 0.73348,-19.31272 0.24178,-1.32611 0.69894,-3.82162 1.01592,-5.54558 1.43095,-7.78248 5.85184,-17.97199 10.37089,-23.90341 4.24382,-5.57017 12.03527,-12.78278 19.23387,-17.80498 13.24365,-9.2396 27.64734,-13.72048 44.16366,-13.73899 4.13303,-0.005 8.79855,0.21845 10.36782,0.49572 8.76914,1.54943 9.75815,1.78137 16.20149,3.79954 5.30297,1.66099 12.80815,4.86002 13.09565,5.58192 0.16259,0.40826 -1.38486,10.76065 -2.30663,15.43118 -0.15703,0.79567 -0.60345,3.9461 -0.99205,7.00095 -0.65457,5.1458 -0.95333,7.73533 -2.1687,18.79806 -0.24767,2.25439 -0.67593,6.05191 -0.95169,8.43892 -0.56017,4.84883 -1.31033,11.5545 -1.94207,17.36008 -0.61561,5.65737 -1.36788,12.01144 -1.9411,16.39563 -0.60966,4.66282 -0.78803,6.2167 -3.349,29.17457 -1.10948,9.94588 -2.21406,18.57444 -2.45463,19.17458 -0.40836,1.01874 -0.70554,1.0874 -4.47673,1.03438 -2.22164,-0.0312 -4.24422,-0.19676 -4.49464,-0.36783 z"
       id="path9309"
       transform="scale(0.26458333)" />
    <path
       style="fill:#ebedeb;fill-opacity:1;stroke:none;stroke-width:17.3601;stroke-opacity:0.533333"
       d="m 452.1657,512.76523 c -0.17682,-0.17682 -0.32148,-5.46677 -0.32148,-11.75545 0,-9.79186 0.10851,-11.52403 0.75554,-12.06102 0.62005,-0.51459 1.9304,-0.5143 7.30659,0.002 3.6109,0.34651 10.0351,0.54732 14.31397,0.44744 l 7.76292,-0.18122 0.12898,11.93506 0.12898,11.93505 -14.11349,-0.0992 c -7.76241,-0.0545 -12.2035,-0.17165 -9.86908,-0.26025 l 4.24441,-0.16109 -0.1455,-11.43369 -0.1455,-11.43369 -4.70169,-0.13802 -4.70168,-0.13802 v 11.55066 c 0,8.78933 0.1441,11.60881 0.60278,11.79389 0.39317,0.15865 0.33728,0.25647 -0.16075,0.2813 -0.41993,0.0209 -0.90818,-0.1066 -1.085,-0.28341 z"
       id="path19724"
       transform="scale(0.26458333)" />
    <path
       style="fill:#ebedeb;fill-opacity:1;stroke:none;stroke-width:17.3601;stroke-opacity:0.533333"
       d="m 354.4349,512.63682 c 0,-0.26372 3.34239,-0.416 8.07726,-0.36798 4.44249,0.0451 13.82778,-0.11048 20.8562,-0.34564 l 12.77894,-0.42755 1.44668,-1.53615 c 0.79567,-0.84488 2.96568,-3.75184 4.82224,-6.45992 1.85656,-2.70808 4.84631,-7.0296 6.64387,-9.60338 1.79756,-2.57378 4.07607,-5.86596 5.06336,-7.31596 0.98728,-1.45 2.12055,-3.00746 2.51839,-3.46103 0.39783,-0.45358 1.48284,-1.9365 2.41112,-3.29538 0.92828,-1.35888 2.30331,-3.32768 3.05562,-4.37511 l 1.36783,-1.90441 h 8.39721 c 5.62681,0 8.39721,0.16971 8.39721,0.5144 0,0.28292 -0.5425,1.22566 -1.20556,2.09497 -0.66306,0.86932 -1.20556,1.72906 -1.20556,1.91055 0,0.18149 -1.04526,1.68001 -2.3228,3.33005 -1.27754,1.65005 -3.43938,4.62759 -4.8041,6.61676 -1.36471,1.98918 -4.86836,6.9802 -7.78588,11.09116 -2.91753,4.11097 -6.30587,8.93924 -7.52966,10.7295 l -2.22507,3.25501 h -29.37865 c -17.85662,0 -29.37865,-0.17644 -29.37865,-0.44989 z"
       id="path19763"
       transform="scale(0.26458333)" />
    <path
       style="fill:#653d91;fill-opacity:1;stroke:none;stroke-width:17.3601;stroke-opacity:0.533333"
       d="m 252.6803,603.02155 -0.23585,-9.64449 -11.09116,0.13067 c -6.10014,0.0719 -13.9134,-0.002 -17.3628,-0.16365 l -6.27165,-0.29431 -1.06635,-4.41748 c -0.58649,-2.42962 -1.62899,-6.8045 -2.31668,-9.72196 -0.68768,-2.91745 -1.68566,-7.14897 -2.21774,-9.40337 -0.53207,-2.2544 -2.04295,-8.54743 -3.35751,-13.98451 -2.80155,-11.5873 -3.10348,-12.87764 -3.83642,-16.39563 -0.30392,-1.45872 -0.75313,-3.30323 -0.99826,-4.0989 -0.24512,-0.79567 -1.21113,-4.70169 -2.14669,-8.68004 -2.47446,-10.52238 -3.52183,-14.94938 -4.56351,-19.28897 -1.83558,-7.6469 -4.3705,-18.39211 -5.1193,-21.7001 -0.42026,-1.85656 -0.95618,-3.87403 -1.19094,-4.48327 -0.85337,-2.21467 -0.60752,-2.59743 1.18684,-1.8477 0.88751,0.37083 2.78627,1.48477 4.21946,2.47543 7.60341,5.25567 11.77519,11.80848 13.70517,21.52739 1.38499,6.97442 4.93997,23.42814 6.49656,30.06836 0.24869,1.06089 1.0987,4.96691 1.88889,8.68004 5.56968,26.17184 8.58064,39.33838 9.12117,39.88574 0.38399,0.38885 25.42723,0.77829 53.27621,0.82849 l 18.71079,0.0337 0.69874,1.67229 c 0.40029,0.95805 0.69873,3.22362 0.69873,5.30447 v 3.63217 l -1.80835,0.0687 c -0.99458,0.0378 -9.07787,0.13191 -17.96285,0.2092 -8.88499,0.0773 -16.42577,0.15489 -16.7573,0.17244 -0.45641,0.0242 -0.62822,2.28606 -0.70755,9.31474 l -0.10477,9.28283 -0.2569,-9.40337 -0.2569,-9.40338 -4.93276,-0.13731 -4.93276,-0.13732 -0.13585,9.78181 -0.13586,9.7818 z"
       id="path28720"
       transform="scale(0.26458333)" />
    <path
       style="fill:#7d9aba;fill-opacity:1;stroke:none;stroke-width:17.3601;stroke-opacity:0.533333"
       d="m 457.61379,485.53516 c -6.69298,-6.98065 -7.00587,-19.1032 -0.58001,-22.47204 1.93124,-1.01248 7.34215,-0.95218 8.94753,0.0997 1.79782,1.17798 2.72948,0.66515 2.79487,-1.53844 0.0538,-1.81242 0.0574,-1.80884 0.60278,0.5914 0.30862,1.35834 1.13369,3.0652 1.88582,3.90128 0.73543,0.81751 1.61877,1.87152 1.96296,2.34224 0.63521,0.8687 3.04011,0.88842 6.10327,0.05 l 1.20556,-0.32996 -1.20556,0.73647 c -0.66306,0.40506 -1.59958,0.74416 -2.08116,0.75356 -0.48158,0.009 -1.29516,0.24163 -1.80797,0.51608 -0.91055,0.48731 -0.90551,0.55222 0.21517,2.77279 1.92637,3.81703 2.47684,7.26295 1.72659,10.80841 -0.35366,1.67133 -0.91269,3.31002 -1.24228,3.64155 -0.43001,0.43254 -2.79579,0.60278 -8.37648,0.60278 h -7.77723 z"
       id="path28759"
       transform="scale(0.26458333)" />
    <path
       style="fill:#7d9aba;fill-opacity:1;stroke:none;stroke-width:17.3601;stroke-opacity:0.533333"
       d="m 462.14428,437.51346 c 0.10788,-3.84955 1.13568,-5.89885 3.25148,-6.48305 4.24788,-1.1729 4.06025,-1.02458 3.90862,-3.08978 -0.37384,-5.09182 4.37536,-9.43315 8.12444,-7.4267 1.19628,0.64023 2.38441,2.94819 2.38441,4.63175 0,2.09065 -1.83784,5.34573 -3.6509,6.46626 -1.84667,1.14131 -2.01937,1.86562 -0.86491,3.62755 0.43376,0.66201 0.67868,1.31363 0.54426,1.44804 -0.13442,0.13442 -0.94159,-0.84207 -1.79371,-2.16999 -1.97635,-3.07987 -3.69826,-3.98596 -6.55913,-3.45149 -3.55469,0.66408 -4.53604,1.9752 -5.085,6.79366 l -0.3571,3.13446 z"
       id="path28798"
       transform="scale(0.26458333)" />
    <path
       style="fill:#6e8a9f;fill-opacity:1;stroke:none;stroke-width:17.3601;stroke-opacity:0.533333"
       d="m 472.34128,467.11473 c -3.55435,-3.70953 -3.8319,-7.54128 -0.92712,-12.79957 0.64114,-1.16061 1.1657,-2.29351 1.1657,-2.51755 0,-0.22405 -1.1889,-0.9698 -2.642,-1.65723 -5.60674,-2.65242 -8.63608,-9.09827 -7.00826,-14.91227 0.81191,-2.89985 1.89771,-3.75602 5.10018,-4.0216 2.63927,-0.21887 2.69101,-0.19761 4.75076,1.95207 1.14534,1.19534 2.706,3.44735 3.46814,5.00446 1.16151,2.37309 1.36985,3.35775 1.28773,6.08614 l -0.098,3.25502 h 3.5083 c 3.22085,0 3.60459,0.10865 4.68353,1.32611 1.95566,2.20676 2.38078,3.35195 2.38078,6.41332 0,5.98077 -4.47691,12.19431 -9.64576,13.38742 -3.60718,0.83264 -3.8261,0.77753 -6.024,-1.51632 z"
       id="path32737"
       transform="scale(0.26458333)" />
    <path
       style="fill:#fdfdfd;fill-opacity:1;stroke:none;stroke-width:17.3601;stroke-opacity:0.533333"
       d="m 388.01277,502.81747 c -0.44206,-1.15751 -1.39664,-2.66677 -2.12129,-3.35391 -1.50338,-1.42556 -6.52629,-3.2547 -8.93757,-3.2547 -2.3288,0 -2.42925,-0.39264 -0.55311,-2.16207 1.9348,-1.82475 2.12939,-3.38399 0.65606,-5.25701 -1.13595,-1.44414 -3.31704,-2.70763 -4.67399,-2.70763 -0.49867,0 -1.95759,0.53204 -3.24205,1.18232 -1.28446,0.65028 -2.4605,1.12829 -2.61341,1.06226 -2.88663,-1.24653 -4.8066,-2.81254 -4.8431,-3.95021 -0.0222,-0.69101 5.53982,-3.76628 8.18177,-4.52377 1.1935,-0.3422 2.66847,-0.81658 3.2777,-1.05419 0.60923,-0.2376 2.99624,-0.42988 5.30447,-0.42729 7.01783,0.008 11.24295,2.64075 13.62953,8.49319 0.96421,2.36446 1.14603,3.60038 1.09671,7.45478 -0.0639,4.99685 -0.84141,7.32175 -3.17733,9.50122 l -1.18065,1.10157 z"
       id="path37612"
       transform="scale(0.26458333)" />
    <path
       style="fill:#e6e6e6;fill-opacity:1;stroke:none;stroke-width:17.3601;stroke-opacity:0.533333"
       d="m 317.29834,652.32899 c -0.52556,-0.86198 -0.95637,-1.90358 -0.95736,-2.31468 -9.7e-4,-0.41109 -0.1873,-0.95359 -0.41401,-1.20556 -0.22671,-0.25196 -1.10791,-2.51962 -1.95821,-5.03924 -1.53796,-4.5573 -2.17744,-6.23168 -2.99031,-7.8296 -0.23428,-0.46055 -0.42597,-1.16874 -0.42597,-1.57378 0,-0.40503 -0.19168,-1.11323 -0.42596,-1.57377 -0.97653,-1.91964 -1.50799,-3.58204 -3.19684,-9.99961 -0.97714,-3.71313 -1.95016,-7.29364 -2.16226,-7.9567 -0.2121,-0.66306 -0.61473,-2.72457 -0.89474,-4.58113 -0.28002,-1.85657 -0.73934,-4.89458 -1.02072,-6.75114 -0.28138,-1.85657 -0.48394,-6.84759 -0.45014,-11.09116 0.0612,-7.68247 -0.23471,-9.60498 -1.66049,-10.78827 -1.20314,-0.99852 -8.59699,-1.42535 -17.18485,-0.99205 -17.18077,0.86686 -29.42227,0.27886 -33.76427,-1.62183 -0.92828,-0.40635 -2.71961,-1.10172 -3.98074,-1.54528 -4.91757,-1.72957 -11.55846,-8.136 -12.92243,-12.4662 -0.34684,-1.10113 -0.82722,-2.26381 -1.0675,-2.58372 -0.24029,-0.31991 -0.30186,-0.80013 -0.13683,-1.06715 0.47178,-0.76336 3.631,-1.48002 6.5373,-1.48296 1.46048,-10e-4 3.41349,-0.22157 4.34002,-0.4891 0.92653,-0.26752 3.42061,-0.60805 5.5424,-0.75673 2.12179,-0.14867 4.18329,-0.37927 4.58113,-0.51244 0.70263,-0.23519 7.36507,-0.90462 14.22562,-1.42935 1.85656,-0.14201 3.80957,-0.4535 4.34002,-0.69221 0.53044,-0.23871 2.91745,-0.55245 5.30447,-0.69718 12.79591,-0.77588 13.69968,-0.78739 14.80134,-0.18848 0.61163,0.33251 1.98006,0.65796 3.04096,0.72324 1.64103,0.10097 5.13539,0.82156 12.05561,2.48604 2.8281,0.68023 3.30505,1.2588 3.727,4.52109 0.46589,3.60214 1.25828,11.40513 1.60845,15.83918 0.13614,1.72395 0.44641,3.56846 0.68949,4.09891 0.24307,0.53045 0.5471,2.15795 0.67561,3.61668 0.12851,1.45873 0.45521,3.84574 0.72599,5.30447 0.27079,1.45873 0.69608,3.73724 0.94508,5.06335 0.24901,1.32612 0.67783,3.64471 0.95295,5.15241 0.46728,2.56086 1.32018,6.3509 2.58439,11.48433 0.29392,1.19351 0.81001,2.49552 1.14685,2.89335 0.73327,0.86605 1.05731,2.24279 1.36197,5.78669 1.45232,16.89325 1.97796,20.07329 3.48073,21.05794 1.97304,1.29279 4.44121,0.57114 6.6955,-1.95765 l 1.92946,-2.16442 0.91274,4.67268 c 1.4731,7.54137 1.50063,7.17617 -0.56756,7.52796 -0.98615,0.16774 -2.87799,0.49366 -4.20411,0.72426 -1.32612,0.23061 -3.55671,0.58128 -4.95689,0.77928 -1.40016,0.19799 -2.66073,0.54601 -2.80124,0.77337 -0.14052,0.22737 -0.89688,0.41339 -1.68079,0.41339 -1.09054,0 -1.64974,-0.3681 -2.38086,-1.56723 z"
       id="path37651"
       transform="scale(0.26458333)" />
    <path
       style="fill:#fdfdfd;fill-opacity:1;stroke:none;stroke-width:17.3601;stroke-opacity:0.533333"
       d="m 222.10618,664.32884 c 0.16633,-0.43347 0.72209,-0.78813 1.23501,-0.78813 0.51292,0 2.27996,-0.40574 3.92676,-0.90164 5.94271,-1.78953 15.16242,-4.36825 26.44531,-7.39664 1.10096,-0.2955 1.94745,-0.90107 2.2801,-1.63116 0.35462,-0.7783 0.53041,-7.32253 0.53315,-19.84764 0.002,-10.27756 0.007,-18.95772 0.0105,-19.28925 0.008,-0.7123 3.18033,-0.8369 3.60994,-0.14177 0.15671,0.25355 0.27617,9.25288 0.26547,19.9985 l -0.0195,19.5375 1.08911,0.70476 c 0.59901,0.38762 3.25912,1.26569 5.91135,1.95127 2.65224,0.68558 5.90725,1.54638 7.23337,1.9129 1.32611,0.36651 4.03863,1.10983 6.0278,1.65181 13.03869,3.55258 14.14029,3.93855 13.38804,4.6908 -0.26283,0.26282 -4.72539,-0.44952 -11.21803,-1.79068 -2.52131,-0.52082 -3.77353,-0.77778 -10.12671,-2.07808 -2.12179,-0.43426 -5.79428,-1.2367 -8.1611,-1.7832 -4.92957,-1.13823 -7.77122,-1.03278 -14.50344,0.53819 -4.37981,1.02204 -6.9656,1.55221 -11.8145,2.42234 -1.45873,0.26177 -3.62874,0.69816 -4.82224,0.96976 -2.08264,0.47394 -5.92185,1.17065 -9.77478,1.77387 -1.54784,0.24232 -1.77312,0.16749 -1.51563,-0.50351 z"
       id="path37690"
       transform="scale(0.26458333)" />
    <path
       id="path42565"
       style="fill:#cccccc;fill-opacity:1;stroke:none;stroke-width:17.3601;stroke-opacity:0.533333"
       d="m 294.98438,551.02344 -0.9004,1.23437 c -0.78643,1.07961 -1.4001,1.28548 -4.87304,1.63281 l -3.97461,0.39844 3.13476,0.31446 c 4.57639,0.46014 12.37832,1.83811 15.42188,2.72265 1.45448,0.4227 2.97487,0.76477 3.37695,0.75977 0.40209,-0.005 1.15848,0.28381 1.68164,0.64258 0.52315,0.35877 1.01039,0.65234 1.08399,0.65234 0.34186,0 0.0713,-5.62278 -0.29883,-6.20703 -0.28469,-0.44942 -2.70034,-0.90051 -7.53516,-1.40625 z m 44.04687,9.80273 c -0.48936,0 -0.89674,2.18633 -1.48633,7.95703 -0.24388,2.38701 -0.65498,6.18506 -0.91211,8.43946 -0.25712,2.2544 -0.69534,6.16005 -0.97461,8.67968 -0.50344,4.54217 -0.96163,8.49389 -1.89843,16.39649 -0.26724,2.2544 -0.73286,6.26261 -1.03516,8.9082 -0.30231,2.64558 -0.65225,4.97804 -0.7793,5.18359 -0.12705,0.20556 -0.76079,0.375 -1.4082,0.375 -1.05915,0 -1.17773,0.20078 -1.17773,2.00391 -10e-6,1.42308 0.36905,2.48812 1.27343,3.67383 2.91355,3.81985 3.92347,10.09683 2.34375,14.57422 -0.84128,2.38447 -0.86527,2.5562 -0.30664,2.21094 0.38071,-0.23529 2.47743,8.9952 2.47656,10.90234 -2.6e-4,0.56584 -0.62878,0.95499 -2.05078,1.27344 l -2.04882,0.45898 2.29101,0.0527 c 2.93606,0.0662 2.90693,0.24501 1.39453,-8.42383 -0.46616,-2.67202 -0.76406,-5.11209 -0.66015,-5.42383 0.3883,-1.16491 0.97689,-0.49749 1.51562,1.72266 0.96829,3.99035 3.02811,10.46495 3.52734,11.08593 0.49712,0.61837 2.62871,0.36287 3.48047,-0.41797 0.25196,-0.23098 1.77236,-0.43758 3.37696,-0.45898 1.6046,-0.0213 3.88507,-0.29334 5.06836,-0.60352 2.45078,-0.64245 2.78528,-1.30351 2.86328,-5.6582 0.0264,-1.47633 0.27773,-3.92793 0.55859,-5.44726 0.43657,-2.36161 0.33573,-3.68692 -0.70312,-9.13086 -1.59459,-8.35622 -3.10228,-16.68394 -5.16797,-28.54883 -0.55966,-3.21455 -1.25971,-6.72389 -1.92188,-9.64453 -0.24052,-1.06089 -0.77482,-3.88252 -1.1875,-6.26953 -0.41268,-2.38701 -0.95364,-5.42584 -1.20312,-6.75196 -0.44776,-2.38011 -0.86122,-4.72469 -1.90625,-10.84179 -0.49842,-2.91755 -2.28687,-6.27735 -3.3418,-6.27735 z m -8.89453,59.48047 c 0.0576,0.01 0.12119,0.0332 0.1875,0.0742 0.26522,0.16392 0.48242,0.39476 0.48242,0.51172 0,0.11695 -0.2172,0.21289 -0.48242,0.21289 -0.26522,0 -0.48242,-0.23084 -0.48242,-0.51172 0,-0.21064 0.122,-0.31618 0.29492,-0.28711 z m 31.07226,36.1582 c -0.31809,0.008 -0.56226,0.23295 -0.69336,0.65235 -0.33384,1.06805 -2.70507,15.01664 -2.70507,15.91211 0,1.26883 0.96504,0.6041 0.99804,-0.6875 0.0686,-2.68557 0.57868,-3.18079 3.86524,-3.75391 3.57416,-0.62328 12.48951,-2.41315 16.35547,-3.2832 2.29291,-0.51602 2.67157,-0.76299 2.79687,-1.82422 0.17649,-1.49476 -0.77961,-2.35846 -3.16797,-2.86328 -3.80293,-0.80382 -16.3838,-3.81021 -17.10742,-4.08789 -0.12093,-0.0464 -0.23576,-0.0671 -0.3418,-0.0645 z"
       transform="scale(0.26458333)" />
    <path
       style="fill:#a9bcd4;fill-opacity:1;stroke:none;stroke-width:17.3601;stroke-opacity:0.533333"
       d="m 333.69925,684.7323 c -60.49801,-0.7619 -129.97151,-2.85293 -144.42619,-4.34697 -2.38701,-0.24673 -5.96753,-0.56749 -7.9567,-0.71282 -7.17502,-0.52418 -12.19438,-2.55857 -8.31837,-3.3715 0.72936,-0.15298 2.19412,-0.46597 3.25501,-0.69555 3.03168,-0.65607 25.31337,-2.41041 31.88173,-2.5102 4.18281,-0.0636 4.38524,-0.11536 4.19401,-1.07342 -0.11395,-0.57092 0.21341,-0.26121 0.75628,0.71551 0.52647,0.94719 1.291,1.99918 1.69896,2.33776 1.0241,0.84993 5.17475,0.90551 6.70137,0.0897 1.79098,-0.95705 2.91153,-3.57913 2.6231,-6.13806 -0.12975,-1.15114 -0.046,-1.97562 0.18609,-1.83217 0.23211,0.14345 0.42201,1.43403 0.42201,2.86797 v 2.60716 l 2.02061,-0.20102 c 1.11134,-0.11056 10.17113,-0.43708 20.13287,-0.72559 9.96174,-0.28852 22.48204,-0.71576 27.82289,-0.94942 5.34086,-0.23366 10.49579,-0.24776 11.4554,-0.0313 1.04143,0.23488 1.85942,0.20798 2.02921,-0.0667 0.15645,-0.25314 0.90469,-0.32403 1.66277,-0.15753 1.24513,0.27348 1.42289,0.14806 1.8395,-1.29788 0.44134,-1.53179 0.46304,-1.49058 0.50466,0.95824 0.0379,2.22851 0.23994,2.73829 1.56509,3.94863 4.89181,4.46797 12.326,-0.0796 9.84339,-6.02135 -0.42279,-1.01188 -0.67336,-1.93513 -0.55682,-2.05166 0.33389,-0.33389 1.72967,2.62025 1.72967,3.6608 0,0.80011 0.22984,0.89202 1.56723,0.62673 0.86198,-0.17099 4.06274,-0.31088 7.11281,-0.31088 h 5.54558 l 0.14565,2.52879 c 0.12668,2.19929 0.29438,2.56611 1.28701,2.81525 0.62774,0.15755 7.56048,0.16757 15.40608,0.0223 l 14.26473,-0.26419 v 1.3757 c 0,1.59062 0.68485,1.96753 3.53557,1.94578 2.46746,-0.0188 3.69779,-0.88323 3.69779,-2.59797 0,-0.71578 0.19951,-1.17811 0.44335,-1.02741 0.74774,0.46213 1.96778,-1.17109 1.96778,-2.63419 0,-0.76107 0.19873,-1.50659 0.44162,-1.65671 0.93082,-0.57527 5.8401,-0.9377 12.09621,-0.89301 3.58051,0.0256 16.97759,0.0686 29.77129,0.0955 l 23.26126,0.049 1.69991,3.37557 1.69991,3.37557 h 5.21804 c 2.86991,0 5.37896,-0.16092 5.57564,-0.35761 0.19669,-0.19668 1.58911,-0.79344 3.09428,-1.32611 2.67949,-0.94828 2.73969,-1.01003 2.88191,-2.95594 l 0.14525,-1.98744 2.26587,0.24217 c 2.57326,0.27501 3.24389,0.68834 4.23895,2.61257 0.68862,1.33166 0.79308,1.36124 4.80594,1.36124 4.17784,0 6.78053,-0.69441 8.52717,-2.2751 0.74729,-0.67628 1.97961,-0.7724 8.45658,-0.65958 11.95373,0.20821 15.87794,0.37839 16.41771,0.71198 0.29026,0.1794 0.57391,-0.25237 0.67278,-1.02414 0.094,-0.73386 0.34879,0.46064 0.56616,2.65445 0.44904,4.53203 0.79818,4.93241 4.30115,4.93241 2.80408,0 3.35659,-0.70664 2.94986,-3.77274 -0.30246,-2.28001 -0.25679,-2.42322 0.82143,-2.57576 1.28859,-0.18231 15.43697,0.85863 28.14626,2.07079 5.77169,0.55049 10.71385,1.5375 11.46631,2.28997 0.97649,0.97648 -0.11878,1.91398 -2.87575,2.46152 -1.54213,0.30626 -3.56337,0.73875 -4.49165,0.96107 -6.91747,1.65673 -54.38288,3.99104 -93.79264,4.61265 -29.00158,0.45744 -76.52111,0.54626 -104.40157,0.19514 z"
       id="path46506"
       transform="scale(0.26458333)" />
    <path
       id="path51498"
       style="fill:#000000;fill-opacity:0;stroke:none;stroke-width:17.3601;stroke-opacity:0.533333"
       d="m 254.37305,594.82422 -0.13086,8.55859 -0.13281,8.56055 h 4.12109 4.12109 l -0.13086,-8.56055 -0.13086,-8.55859 h -3.85937 z m 43.77539,70.64453 c -3.69595,0 -5.74862,4.45723 -3.38282,7.3457 1.48127,1.8085 4.67391,1.8847 6.40626,0.15235 2.69931,-2.69934 0.76435,-7.49805 -3.02344,-7.49805 z m -80.03125,0.0469 c -1.50589,0.0195 -3.00328,0.83506 -3.79102,2.73047 -0.66388,1.59739 -0.0762,3.82378 1.33594,5.06055 2.03192,1.77954 5.65441,0.74533 6.60547,-1.88476 1.24483,-3.44254 -1.46599,-5.94093 -4.15039,-5.90626 z m 78.41015,0.97852 c 0.16753,0.007 0.31246,0.0507 0.39258,0.13086 0.16024,0.16028 -0.12447,0.27481 -0.63281,0.25391 -0.56177,-0.0231 -0.6757,-0.13903 -0.29102,-0.29297 0.17406,-0.0696 0.36373,-0.0987 0.53125,-0.0918 z"
       transform="scale(0.26458333)" />
    <path
       style="fill:#f2f2f2;fill-opacity:1;stroke:none;stroke-width:17.3601;stroke-opacity:0.533333"
       d="m 221.8232,664.49002 c 0,-0.59879 -0.95545,-0.28759 11.09116,-3.6126 19.41875,-5.35981 21.94968,-6.11429 22.59953,-6.737 0.52684,-0.50485 0.70977,-4.59376 0.91599,-20.47464 l 0.25768,-19.8438 1.73624,0.14536 1.73624,0.14537 0.12591,19.90211 0.12592,19.90211 1.56187,0.70933 c 0.85903,0.39013 7.09539,2.22107 13.85859,4.06876 16.01568,4.37546 17.96978,4.98701 18.20677,5.69799 0.11143,0.33428 -0.20956,0.59437 -0.73352,0.59437 -0.88594,0 -13.213,-2.40636 -22.53661,-4.39937 -2.38701,-0.51024 -6.15365,-1.28042 -8.37031,-1.71149 -4.42544,-0.86063 -3.0493,-1.02696 -18.87536,2.28145 -9.30045,1.94424 -19.41165,3.82941 -20.53925,3.82941 -0.63847,0 -1.16085,-0.22381 -1.16085,-0.49736 z"
       id="path54973"
       transform="scale(0.26458333)" />
    <path
       style="fill:#fdfdfd;fill-opacity:1;stroke:none;stroke-width:17.3601;stroke-opacity:0.533333"
       d="m 387.93295,503.08714 c -0.90912,-2.17583 -2.3789,-3.81754 -4.32348,-4.82921 -1.82787,-0.95095 -5.86042,-2.03586 -7.59503,-2.04335 -0.72937,-0.003 -1.32612,-0.14217 -1.32612,-0.30894 0,-0.16678 0.7595,-1.14391 1.68779,-2.1714 0.92828,-1.0275 1.68778,-2.09533 1.68778,-2.37296 0,-1.33279 -1.5911,-3.29283 -3.49135,-4.30091 l -2.10604,-1.11726 -2.92954,1.3147 -2.92955,1.3147 -1.95548,-0.99761 c -2.29603,-1.17135 -3.65837,-2.8498 -2.97825,-3.66929 0.80258,-0.96705 5.16269,-3.13901 8.75238,-4.35994 2.74091,-0.93225 4.43344,-1.1769 8.08396,-1.16852 5.23375,0.012 7.8072,0.86805 10.56023,3.51282 4.83378,4.64369 5.87326,15.66553 1.98381,21.03477 -0.78256,1.08028 -1.63556,1.96416 -1.89556,1.96416 -0.26,0 -0.8115,-0.8108 -1.22555,-1.80176 z"
       id="path55012"
       transform="scale(0.26458333)" />
    <path
       style="fill:#000000;fill-opacity:0;stroke:none;stroke-width:17.3601;stroke-opacity:0.533333"
       d="m 358.15509,509.62586 c -2.24218,-1.3367 -2.47955,-2.212 -2.14059,-7.89349 0.23899,-4.00584 0.169,-4.57275 -0.65683,-5.32012 -0.87873,-0.79524 -1.11148,-0.78521 -4.71879,0.20339 -4.99752,1.36959 -4.93246,1.38047 -4.59368,-0.76845 1.21132,-7.68336 2.03133,-12.24745 2.23749,-12.45362 0.13374,-0.13373 1.84394,0.0908 3.80046,0.49898 1.95652,0.40817 4.00582,0.74231 4.554,0.74253 0.54818,2.2e-4 2.71819,1.30137 4.82225,2.89145 2.10405,1.59008 4.3072,2.89209 4.89588,2.89335 0.58869,0.001 1.84304,-0.43172 2.78746,-0.96216 2.22635,-1.25047 4.77734,-1.25047 6.02781,0 1.44856,1.44856 1.19845,2.1572 -1.44668,4.0989 -1.32611,0.97346 -2.41112,2.15062 -2.41112,2.6159 0,1.10031 1.93516,1.95902 4.48327,1.98941 1.11472,0.0133 3.42998,0.50154 5.14502,1.085 2.41101,0.82023 3.37118,1.43714 4.23335,2.71997 1.9185,2.85457 1.94073,3.88356 0.11677,5.40627 -2.99856,2.50331 -5.13362,2.93199 -15.66619,3.14545 -9.32723,0.18904 -9.70454,0.15967 -11.46988,-0.89276 z"
       id="path59770"
       transform="scale(0.26458333)" />
    <path
       style="fill:#000000;fill-opacity:0;stroke:none;stroke-width:17.3601;stroke-opacity:0.533333"
       d="m 325.14419,641.23783 c -0.26144,-0.33153 -0.61757,-2.33879 -0.79139,-4.46057 -0.17383,-2.12179 -0.53196,-5.48531 -0.79585,-7.47448 -0.26389,-1.98918 -0.61027,-5.63615 -0.76974,-8.10438 l -0.28995,-4.4877 2.58709,0.14768 2.5871,0.14768 0.0814,1.92889 c 0.0448,1.0609 0.099,2.15924 0.12056,2.44075 0.0215,0.28152 0.42615,0.93252 0.8992,1.44668 2.95082,3.20725 3.97316,10.91204 1.99116,15.00631 -1.58842,3.28123 -4.38339,4.9768 -5.61961,3.40914 z"
       id="path59809"
       transform="scale(0.26458333)" />
    <path
       style="fill:#000000;fill-opacity:0;stroke:none;stroke-width:17.3601;stroke-opacity:0.533333"
       d="m 323.39081,662.21459 c -0.54987,-1.88077 -1.24586,-6.5693 -1.01017,-6.80499 0.22679,-0.22679 4.74485,-1.17695 8.74344,-1.83877 l 1.52375,-0.2522 0.33977,3.1728 c 0.18688,1.74504 0.22368,3.47535 0.0818,3.84513 -0.15554,0.40534 -1.37429,0.81072 -3.06908,1.02083 -1.54609,0.19168 -3.54283,0.65284 -4.4372,1.0248 -2.00779,0.83503 -1.87619,0.84518 -2.17229,-0.1676 z"
       id="path59848"
       transform="scale(0.26458333)" />
    <path
       style="fill:#e2857d;fill-opacity:1;stroke:none;stroke-width:17.3601;stroke-opacity:0.533333"
       d="m 344.83966,657.39235 c -1.26026,-4.84785 -1.26604,-4.78678 0.50656,-5.34886 1.37945,-0.43742 4.99712,-0.74641 7.03922,-0.60124 1.20929,0.086 0.47879,5.76 -0.7919,6.15102 -0.42643,0.13122 -1.6671,0.65507 -2.75704,1.16411 -2.9172,1.36244 -3.32391,1.22354 -3.99684,-1.36503 z"
       id="path59887"
       transform="scale(0.26458333)" />
    <path
       style="fill:#2a3757;fill-opacity:1;stroke:none;stroke-width:17.3601;stroke-opacity:0.533333"
       d="m 215.662,673.30575 c -1.41217,-1.23677 -1.99956,-3.46154 -1.33568,-5.05893 2.19197,-5.27419 9.88372,-2.19812 7.94057,3.17559 -0.95106,2.63011 -4.57297,3.66288 -6.60489,1.88334 z"
       id="path62734"
       transform="scale(0.26458333)" />
    <path
       style="fill:#2a3757;fill-opacity:1;stroke:none;stroke-width:17.3601;stroke-opacity:0.533333"
       d="m 294.92306,672.66597 c -1.3556,-1.61103 -1.54769,-2.81681 -0.70977,-4.45528 1.55418,-3.03903 4.88287,-3.64625 6.89295,-1.25741 2.59095,3.07917 0.79583,7.14658 -3.16928,7.18103 -1.3898,0.0121 -2.03113,-0.30038 -3.0139,-1.46834 z"
       id="path62773"
       transform="scale(0.26458333)" />
    <path
       style="fill:#2a3757;fill-opacity:1;stroke:none;stroke-width:17.3601;stroke-opacity:0.533333"
       d="m 254.24166,603.38322 0.13169,-8.55948 3.97835,-0.14006 3.97835,-0.14006 v 8.69954 8.69954 h -4.11004 -4.11003 z"
       id="path62812"
       transform="scale(0.26458333)" />
    <path
       style="fill:#e2857d;fill-opacity:1;stroke:none;stroke-width:17.3601;stroke-opacity:0.533333"
       d="m 358.15509,509.62586 c -2.24218,-1.3367 -2.47955,-2.212 -2.14059,-7.89349 0.23899,-4.00584 0.169,-4.57275 -0.65683,-5.32012 -0.87873,-0.79524 -1.11148,-0.78521 -4.71879,0.20339 -2.08696,0.57194 -4.00433,1.03989 -4.26083,1.03989 -0.2853,0 -0.20879,-1.63808 0.19708,-4.21946 0.36489,-2.32071 0.83689,-5.36691 1.0489,-6.76934 0.212,-1.40244 0.58603,-2.75045 0.83116,-2.99558 0.27279,-0.27279 1.753,-0.17218 3.81531,0.25931 1.85328,0.38776 3.82007,0.70501 4.37064,0.70501 0.55057,0 2.57742,1.19427 4.5041,2.65393 4.29632,3.2549 5.13164,3.49147 7.79109,2.20657 2.46828,-1.19254 4.65568,-1.28252 6.12692,-0.25202 1.70559,1.19464 1.32053,2.44776 -1.33938,4.35871 -1.32611,0.95272 -2.41112,2.11103 -2.41112,2.57403 0,1.0965 1.93849,1.95489 4.48327,1.98524 1.11472,0.0133 3.42998,0.50154 5.14502,1.085 2.41101,0.82023 3.37118,1.43714 4.23335,2.71997 1.9185,2.85457 1.94073,3.88356 0.11677,5.40627 -2.99856,2.50331 -5.13362,2.93199 -15.66619,3.14545 -9.32723,0.18904 -9.70454,0.15967 -11.46988,-0.89276 z"
       id="path68781"
       transform="scale(0.26458333)" />
    <path
       style="fill:#e2857d;fill-opacity:1;stroke:none;stroke-width:17.3601;stroke-opacity:0.533333"
       d="m 325.14419,641.23783 c -0.26144,-0.33153 -0.61975,-2.33879 -0.79625,-4.46057 -0.17649,-2.12179 -0.53728,-5.59381 -0.80175,-7.71559 -0.26447,-2.12179 -0.60634,-5.76868 -0.75972,-8.1042 l -0.27886,-4.24641 2.58192,0.1475 2.58192,0.1475 0.0551,2.24474 c 0.0337,1.37195 0.42459,2.77818 1.0054,3.61668 0.52268,0.75457 1.42014,2.36271 1.99437,3.57365 1.43694,3.03025 1.45482,8.45975 0.0375,11.38756 -1.58842,3.28123 -4.38339,4.9768 -5.61961,3.40914 z"
       id="path68820"
       transform="scale(0.26458333)" />
    <path
       style="fill:#e2857d;fill-opacity:1;stroke:none;stroke-width:17.3601;stroke-opacity:0.533333"
       d="m 323.35743,662.51041 c -0.12475,-0.36162 -0.46824,-2.0457 -0.76329,-3.74241 -0.61831,-3.55555 -0.50913,-3.71214 2.9073,-4.17002 1.1935,-0.15995 2.79914,-0.49178 3.56808,-0.7374 2.88873,-0.92274 3.5774,-0.63857 3.91544,1.61565 0.17009,1.13423 0.23763,2.80832 0.1501,3.72021 -0.13961,1.45449 -0.36629,1.70452 -1.84693,2.03722 -3.91798,0.88035 -5.60738,1.28889 -6.62473,1.60206 -0.71781,0.22096 -1.15509,0.11203 -1.30597,-0.32531 z"
       id="path68859"
       transform="scale(0.26458333)" />
    <path
       style="fill:#f1f2f2;fill-opacity:1;stroke:none;stroke-width:4.34002;stroke-opacity:0.533333"
       d="m 429.23055,674.67601 c -0.27571,-0.28899 -0.55968,-0.74275 -0.64658,-1.0332 -0.0852,-0.28484 -0.42007,-1.06772 -0.74408,-1.73973 -0.63027,-1.30718 -0.73907,-1.98898 -0.44983,-2.81869 0.1495,-0.42887 0.17346,-0.39248 -0.64078,-0.97362 -0.22403,-0.15989 -0.26412,-0.29058 -0.24038,-0.78361 0.023,-0.47867 0.0967,-0.65624 0.38531,-0.92947 0.19625,-0.18577 0.44448,-0.51127 0.55163,-0.72334 0.51094,-1.01129 1.20026,-1.24335 2.40192,-0.80861 1.49556,0.54106 1.8594,0.61222 2.20817,0.43187 0.4962,-0.2566 0.75516,-0.61072 0.82447,-1.12744 0.0721,-0.5373 -0.18972,-0.88364 -0.8978,-1.18775 -0.31017,-0.13322 -0.39181,-0.23941 -0.39181,-0.50965 0,-0.30428 -0.30722,-0.7404 -0.52157,-0.7404 -0.16999,0 -1.28673,-0.87344 -1.28609,-1.0059 3.7e-4,-0.0767 0.0547,-0.33381 0.12069,-0.57144 0.11754,-0.42314 0.15299,-0.44408 1.71725,-1.01434 0.87848,-0.32026 1.71243,-0.65651 1.85323,-0.74724 0.14081,-0.0907 0.52877,-0.19726 0.86215,-0.23675 0.76014,-0.09 1.51453,0.15302 2.32765,0.7499 0.32875,0.24133 0.86882,0.56955 1.20014,0.72939 0.33132,0.15984 0.99883,0.63634 1.48334,1.0589 0.48451,0.42256 1.03964,0.85706 1.23362,0.96556 0.98782,0.55253 1.39601,0.96866 1.60786,1.63915 0.48917,1.54816 0.73045,2.43353 1.03491,3.79751 0.1776,0.79567 0.39956,1.6869 0.49323,1.98051 0.0937,0.29362 0.17032,0.75968 0.17032,1.03571 0,0.27603 0.0808,0.76818 0.17953,1.09367 0.0987,0.32549 0.18011,0.82045 0.18083,1.09992 0.002,0.60234 -0.20215,0.75862 -0.98536,0.75594 -0.79219,-0.003 -1.10147,-0.2122 -1.20453,-0.8159 -0.18065,-1.05821 -0.40244,-0.91792 -0.52423,0.3316 -0.1092,1.12041 -0.13143,1.16483 -0.69483,1.38827 -0.2793,0.11076 -0.64411,0.33062 -0.81068,0.48858 -0.61839,0.58639 -1.5797,0.69871 -6.14689,0.71817 l -4.15918,0.0177 z"
       id="path77558"
       transform="scale(0.26458333)" />
    <path
       style="fill:#f1f2f2;fill-opacity:1;stroke:none;stroke-width:4.34002;stroke-opacity:0.533333"
       d="m 455.65027,673.21545 c -1.23182,-0.0235 -1.98099,-0.0869 -2.08943,-0.17691 -0.30137,-0.25011 -0.83762,-1.45939 -1.03525,-2.33454 -0.10603,-0.46954 -0.36864,-1.22904 -0.58358,-1.68779 -0.50513,-1.07812 -0.59381,-2.08731 -0.2437,-2.77357 0.1327,-0.26012 0.52478,-0.71199 0.87128,-1.00417 0.3465,-0.29217 0.71858,-0.72588 0.82683,-0.9638 0.10825,-0.23791 0.47627,-0.70965 0.81781,-1.0483 0.66374,-0.65812 1.25925,-0.8957 2.13063,-0.85004 0.25411,0.0133 0.4948,-0.0288 0.53487,-0.0937 0.0401,-0.0648 0.10341,-0.46518 0.14076,-0.88966 0.078,-0.88645 0.0717,-0.88123 1.91559,-1.5905 1.36299,-0.52429 1.81307,-0.57359 2.16934,-0.2376 0.27337,0.25779 0.27791,0.29878 0.19795,1.78829 -0.0924,1.72189 -0.10891,1.76222 -1.12979,2.76584 -0.56006,0.55059 -0.7147,0.78702 -0.77651,1.1872 -0.0895,0.57974 -0.003,0.64559 0.84433,0.64559 0.53909,0 1.18742,-0.29292 2.03092,-0.91759 0.19892,-0.14731 0.59218,-0.35962 0.87393,-0.47179 l 0.51225,-0.20395 0.60374,0.46042 c 0.46409,0.35392 0.65931,0.60895 0.844,1.10257 0.13214,0.35319 0.24026,0.68774 0.24026,0.74344 0,0.0557 0.0906,0.17572 0.20142,0.26673 0.36324,0.29837 0.88358,1.23024 0.88358,1.58239 0,0.71492 -1.22825,2.30442 -2.0234,2.6185 -0.21774,0.086 -0.491,0.2711 -0.60725,0.41132 -0.19453,0.23463 -0.38784,0.36946 -0.95589,0.66672 -0.39613,0.2073 -1.77679,0.59979 -2.74265,0.77968 -1.22479,0.22812 -2.06566,0.27065 -4.45204,0.22518 z"
       id="path84071"
       transform="scale(0.26458333)" />
    <path
       style="fill:#f1f2f2;fill-opacity:1;stroke:none;stroke-width:24.5509;stroke-opacity:0.533333"
       d="m 387.60291,502.86338 c -1.59959,-3.21917 -3.76593,-4.76701 -8.0876,-5.77855 -1.87541,-0.43896 -3.84217,-0.91874 -4.37058,-1.06617 -0.70985,-0.19806 -0.48723,-0.76231 0.85246,-2.16064 2.34677,-2.44951 2.28656,-3.68529 -0.28503,-5.84914 -2.48908,-2.09443 -2.85304,-2.11947 -6.53101,-0.44945 l -2.83251,1.28613 -2.45274,-1.66668 c -1.34901,-0.91667 -2.45274,-2.11078 -2.45274,-2.65356 0,-0.54278 1.47081,-1.7322 3.26847,-2.64314 11.43093,-5.79249 21.76292,-4.79744 26.31678,2.53452 3.57774,5.76036 3.10683,16.23412 -0.89263,19.85359 -1.20239,1.08815 -1.32768,1.01856 -2.53287,-1.40691 z"
       id="path84110"
       transform="scale(0.26458333)" />
  </g>
</svg>
