<?xml version="1.0" encoding="UTF-8" standalone="no"?>
<svg
   enable-background="new 0 0 24 24"
   height="50.559032"
   viewBox="0 0 50.559032 50.559032"
   width="50.559032"
   fill="#000000"
   version="1.1"
   id="svg12"
   sodipodi:docname="cookie_black_24dp.svg"
   inkscape:version="1.1.2 (b8e25be833, 2022-02-05)"
   xmlns:inkscape="http://www.inkscape.org/namespaces/inkscape"
   xmlns:sodipodi="http://sodipodi.sourceforge.net/DTD/sodipodi-0.dtd"
   xmlns="http://www.w3.org/2000/svg"
   xmlns:svg="http://www.w3.org/2000/svg">
  <defs
     id="defs16" />
  <sodipodi:namedview
     id="namedview14"
     pagecolor="#ffffff"
     bordercolor="#666666"
     borderopacity="1.0"
     inkscape:pageshadow="2"
     inkscape:pageopacity="0.0"
     inkscape:pagecheckerboard="0"
     showgrid="false"
     inkscape:zoom="6.0619675"
     inkscape:cx="-23.259775"
     inkscape:cy="13.526961"
     inkscape:window-width="1920"
     inkscape:window-height="1009"
     inkscape:window-x="-8"
     inkscape:window-y="-8"
     inkscape:window-maximized="1"
     inkscape:current-layer="svg12"
     fit-margin-top="0"
     fit-margin-left="0"
     fit-margin-right="0"
     fit-margin-bottom="0" />
  <g
     id="g4"
     transform="scale(2.1066264)">
    <rect
       fill="none"
       height="24"
       width="24"
       id="rect2"
       x="0"
       y="0" />
  </g>
  <g
     id="g10"
     transform="scale(2.1066264)"
     style="fill:#b3b3b3">
    <g
       id="g8"
       style="fill:#b3b3b3">
      <path
         d="M 21.95,10.99 C 20.16,10.96 18.25,9.04 19.27,6.77 16.29,7.77 13.5,5.18 14.08,2.21 6.95,0.71 2,6.58 2,12 c 0,5.52 4.48,10 10,10 5.89,0 10.54,-5.08 9.95,-11.01 z M 8.5,15 C 7.67,15 7,14.33 7,13.5 7,12.67 7.67,12 8.5,12 9.33,12 10,12.67 10,13.5 10,14.33 9.33,15 8.5,15 Z m 2,-5 C 9.67,10 9,9.33 9,8.5 9,7.67 9.67,7 10.5,7 11.33,7 12,7.67 12,8.5 12,9.33 11.33,10 10.5,10 Z m 4.5,6 c -0.55,0 -1,-0.45 -1,-1 0,-0.55 0.45,-1 1,-1 0.55,0 1,0.45 1,1 0,0.55 -0.45,1 -1,1 z"
         id="path6"
         style="fill:#b3b3b3" />
    </g>
  </g>
</svg>
