<?xml version="1.0" encoding="UTF-8" standalone="no"?>
<!-- Created with Inkscape (http://www.inkscape.org/) -->

<svg
   version="1.1"
   id="svg5150"
   xml:space="preserve"
   width="211.65334"
   height="89.250664"
   viewBox="0 0 211.65333 89.250662"
   sodipodi:docname="libri_logo_white_simple.svg"
   inkscape:version="1.1.2 (b8e25be833, 2022-02-05)"
   xmlns:inkscape="http://www.inkscape.org/namespaces/inkscape"
   xmlns:sodipodi="http://sodipodi.sourceforge.net/DTD/sodipodi-0.dtd"
   xmlns="http://www.w3.org/2000/svg"
   xmlns:svg="http://www.w3.org/2000/svg"><defs
     id="defs5154"><clipPath
       clipPathUnits="userSpaceOnUse"
       id="clipPath5166"><path
         d="M 0,841.89 H 595.276 V 0 H 0 Z"
         id="path5164" /></clipPath></defs><sodipodi:namedview
     id="namedview5152"
     pagecolor="#ffffff"
     bordercolor="#666666"
     borderopacity="1.0"
     inkscape:pageshadow="2"
     inkscape:pageopacity="0.0"
     inkscape:pagecheckerboard="0"
     showgrid="false"
     fit-margin-top="0"
     fit-margin-left="0"
     fit-margin-right="0"
     fit-margin-bottom="0"
     inkscape:zoom="3.0003919"
     inkscape:cx="77.323232"
     inkscape:cy="30.329371"
     inkscape:window-width="1920"
     inkscape:window-height="1009"
     inkscape:window-x="-8"
     inkscape:window-y="-8"
     inkscape:window-maximized="1"
     inkscape:current-layer="g5156" /><g
     id="g5156"
     inkscape:groupmode="layer"
     inkscape:label="Libri_ksiega_znaku_minimum_krzywe"
     transform="matrix(1.3333333,0,0,-1.3333333,-215.86171,899.15348)"><path
       id="path6846"
       style="fill:#ffffff;fill-opacity:1;fill-rule:nonzero;stroke:none;stroke-width:0.999998"
       d="m 260.88336,674.36513 v -37.16455 -0.0234 c 0,-1.03 0.0533,-2.04827 0.15527,-3.05127 1.511,-15.015 14.18857,-26.69824 29.60157,-26.69824 16.428,0.003 29.74365,13.32151 29.74365,29.74951 0,16.431 -13.31998,29.74952 -29.75098,29.74952 -8.888,0 -16.85903,-3.90106 -22.31103,-10.08106 v 13.81787 h -0.001 c -0.009,2.04 -1.66019,3.69166 -3.70019,3.70166 z m 29.75244,-14.87549 c 12.344,0 22.35205,-10.00512 22.35205,-22.34912 0,-12.343 -10.00805,-22.34912 -22.35205,-22.34912 -11.568,0 -21.08393,8.78918 -22.23193,20.05518 -0.075,0.743 -0.11279,1.49532 -0.11279,2.25732 0,0.024 10e-4,0.0492 10e-4,0.0732 h 0.0293 v 1.18213 c 0.633,11.776 10.37996,21.13037 22.31396,21.13037 z m -0.003,-7.45898 c -8.216,0 -14.87548,-6.65902 -14.87548,-14.87402 0,-5.505 2.99247,-10.30984 7.43847,-12.88184 v 12.84375 c 0,0.013 0,0.0261 0,0.0381 0,4.108 3.33001,7.43701 7.43701,7.43701 4.108,0 7.43702,-3.32901 7.43702,-7.43701 0,-0.012 -10e-4,-0.0251 -10e-4,-0.0381 h 7.43848 c 0,0.013 0.001,0.0261 0.001,0.0381 0,8.215 -6.66049,14.87402 -14.87549,14.87402 z" /></g></svg>
