<?xml version="1.0" encoding="UTF-8" standalone="no"?>
<!-- Created with Inkscape (http://www.inkscape.org/) -->

<svg
   version="1.1"
   id="svg5150"
   xml:space="preserve"
   width="211.65334"
   height="89.250664"
   viewBox="0 0 211.65333 89.250662"
   sodipodi:docname="libri_logo_white.svg"
   inkscape:version="1.1 (c68e22c387, 2021-05-23)"
   xmlns:inkscape="http://www.inkscape.org/namespaces/inkscape"
   xmlns:sodipodi="http://sodipodi.sourceforge.net/DTD/sodipodi-0.dtd"
   xmlns="http://www.w3.org/2000/svg"
   xmlns:svg="http://www.w3.org/2000/svg"><defs
     id="defs5154"><clipPath
       clipPathUnits="userSpaceOnUse"
       id="clipPath5166"><path
         d="M 0,841.89 H 595.276 V 0 H 0 Z"
         id="path5164" /></clipPath></defs><sodipodi:namedview
     id="namedview5152"
     pagecolor="#ffffff"
     bordercolor="#666666"
     borderopacity="1.0"
     inkscape:pageshadow="2"
     inkscape:pageopacity="0.0"
     inkscape:pagecheckerboard="0"
     showgrid="false"
     fit-margin-top="0"
     fit-margin-left="0"
     fit-margin-right="0"
     fit-margin-bottom="0"
     inkscape:zoom="0.53039937"
     inkscape:cx="-441.17699"
     inkscape:cy="389.32927"
     inkscape:window-width="1920"
     inkscape:window-height="1027"
     inkscape:window-x="1912"
     inkscape:window-y="-8"
     inkscape:window-maximized="1"
     inkscape:current-layer="g5156" /><g
     id="g5156"
     inkscape:groupmode="layer"
     inkscape:label="Libri_ksiega_znaku_minimum_krzywe"
     transform="matrix(1.3333333,0,0,-1.3333333,-215.86171,899.15348)"><g
       id="g6844"
       transform="translate(206.52129,637.15613)"
       style="fill:#ffffff"><path
         d="M 0,0 C 0,-0.012 -0.001,-0.024 -0.001,-0.037 H -7.44 c 0,0.013 0.002,0.025 0.002,0.037 0,4.108 -3.33,7.437 -7.438,7.437 -4.107,0 -7.437,-3.329 -7.437,-7.437 0,-0.012 10e-4,-0.024 10e-4,-0.037 v 0 -12.844 c -4.446,2.572 -7.439,7.376 -7.439,12.881 0,8.215 6.66,14.875 14.876,14.875 C -6.66,14.875 0,8.215 0,0 m -14.872,-22.365 c -11.568,0 -21.084,8.789 -22.232,20.055 -0.075,0.743 -0.114,1.496 -0.114,2.258 0,0.024 0.002,0.049 0.002,0.073 h 0.029 v 1.182 c 0.633,11.776 10.381,21.131 22.315,21.131 12.344,0 22.351,-10.006 22.351,-22.35 0,-12.343 -10.007,-22.349 -22.351,-22.349 m -0.003,52.136 c -8.888,0 -16.86,-3.902 -22.312,-10.082 v 13.818 h -0.001 c -0.009,2.04 -1.66,3.692 -3.7,3.702 h -3.737 V 0.045 c 0,-0.008 0,-0.016 0,-0.024 0,-1.03 0.053,-2.048 0.155,-3.051 1.511,-15.015 14.189,-26.699 29.602,-26.699 16.428,0.003 29.743,13.322 29.743,29.75 0,16.431 -13.319,29.75 -29.75,29.75 m 128.99,-39.504 v -0.728 c 0,-2.827 -2.271,-5.119 -5.072,-5.119 -2.8,0 -5.072,2.292 -5.072,5.119 0,0.027 0.007,0.052 0.008,0.078 h -0.008 l -0.068,17.212 h 3.218 c 0.883,-0.06 2.516,-0.451 2.886,-2.401 l 0.07,-14.161 z m -10.212,21.795 c 0,1.647 1.336,2.983 2.983,2.983 1.648,0 2.984,-1.336 2.984,-2.983 0,-1.648 -1.336,-2.984 -2.984,-2.984 -1.647,0 -2.983,1.336 -2.983,2.984 M 56.743,-9.733 h 4.039 v -0.728 c 0,-2.827 -2.272,-5.119 -5.073,-5.119 -2.8,0 -5.071,2.292 -5.071,5.119 0,0.027 0.006,0.052 0.008,0.078 H 50.638 L 50.569,6.829 h 3.218 c 0.883,-0.06 2.516,-0.451 2.886,-2.401 z m -6.174,21.997 c 0,1.648 1.336,2.984 2.983,2.984 1.648,0 2.984,-1.336 2.984,-2.984 0,-1.647 -1.336,-2.983 -2.984,-2.983 -1.647,0 -2.983,1.336 -2.983,2.983 M 101.374,3.907 V 1.339 l -4.32,-0.031 c -3.694,0 -3.746,-2.753 -3.829,-3.68 L 93.141,-3.959 V -3.96 -15.377 H 87.26 v 14.131 c 0,4.34 3.397,7.87 7.654,8.058 v 0.017 h 3.509 c 0.957,-0.066 2.793,-0.517 2.951,-2.922 M 48.243,-12.68 v -2.697 H 38.092 v 0.021 c -4.866,0.211 -8.749,4.212 -8.749,9.13 v 21.17 h 3.751 c 1.001,-0.069 2.971,-0.547 2.971,-3.249 V -3.149 -3.15 l 0.096,-2.424 c 0.096,-1.051 0.154,-4.171 4.378,-4.171 l 4.833,-0.022 c 0.975,-0.084 2.717,-0.572 2.871,-2.913 m 25.388,2.947 c -3.075,0 -5.568,2.492 -5.568,5.566 0,3.074 2.493,5.565 5.568,5.565 3.076,0 5.569,-2.491 5.569,-5.565 0,-3.074 -2.493,-5.566 -5.569,-5.566 m 0,16.706 c -2.022,0 -3.919,-0.516 -5.568,-1.413 v 6.149 c 0,2.691 -1.963,3.167 -2.959,3.236 H 62.159 V -3.823 h 0.021 c -0.006,-0.14 -0.021,-0.278 -0.021,-0.419 0,-6.194 5.135,-11.215 11.472,-11.215 6.336,0 11.473,5.021 11.473,11.215 0,6.194 -5.137,11.215 -11.473,11.215"
         style="fill:#ffffff;fill-opacity:1;fill-rule:nonzero;stroke:none"
         id="path6846" /></g></g></svg>
