<?xml version="1.0" encoding="UTF-8" standalone="no"?>
<!-- Created with Inkscape (http://www.inkscape.org/) -->

<svg
   width="198.74591mm"
   height="198.74573mm"
   viewBox="0 0 198.74591 198.74573"
   version="1.1"
   id="svg5"
   inkscape:version="1.1.2 (b8e25be833, 2022-02-05)"
   sodipodi:docname="no_foto.svg"
   xmlns:inkscape="http://www.inkscape.org/namespaces/inkscape"
   xmlns:sodipodi="http://sodipodi.sourceforge.net/DTD/sodipodi-0.dtd"
   xmlns="http://www.w3.org/2000/svg"
   xmlns:svg="http://www.w3.org/2000/svg">
  <sodipodi:namedview
     id="namedview7"
     pagecolor="#ffffff"
     bordercolor="#666666"
     borderopacity="1.0"
     inkscape:pageshadow="2"
     inkscape:pageopacity="0.0"
     inkscape:pagecheckerboard="0"
     inkscape:document-units="mm"
     showgrid="false"
     fit-margin-left="20"
     fit-margin-right="20"
     fit-margin-top="20"
     fit-margin-bottom="20"
     inkscape:zoom="0.733172"
     inkscape:cx="357.35135"
     inkscape:cy="536.02702"
     inkscape:window-width="1920"
     inkscape:window-height="1009"
     inkscape:window-x="-8"
     inkscape:window-y="-8"
     inkscape:window-maximized="1"
     inkscape:current-layer="layer1" />
  <defs
     id="defs2" />
  <g
     inkscape:label="Warstwa 1"
     inkscape:groupmode="layer"
     id="layer1"
     transform="translate(-10.696352,-7.0877191)">
    <g
       id="g962"
       transform="translate(5.0522478,-11.547995)">
      <path
         style="fill:#e7e706;stroke-width:0.264583"
         d="M 98.135411,197.08876 C 87.939497,196.19821 77.547412,193.18861 68.617156,188.54012 42.141807,174.75885 25.644104,147.68025 25.644104,118.00607 c 0,-36.787338 25.323678,-68.789946 61.114224,-77.232636 40.079972,-9.454529 80.669932,13.248289 93.616742,52.361806 12.20427,36.87025 -4.18938,77.26052 -38.65733,95.24295 -13.30803,6.94299 -28.66919,10.01314 -43.582329,8.71057 z m 14.287499,-22.05152 c 6.00688,-0.80667 11.98427,-2.56477 17.14895,-5.04393 3.65786,-1.75585 7.4573,-4.02185 7.4573,-4.44756 0,-0.17291 -4.16778,-4.48094 -9.26173,-9.57339 l -9.26173,-9.259 -26.787747,-0.13229 -26.78775,-0.13229 -1.396849,-0.63124 c -1.85619,-0.83883 -3.637862,-2.82724 -4.168344,-4.65204 -0.346017,-1.19024 -0.392642,-3.77979 -0.329359,-18.29225 l 0.07372,-16.90572 0.710612,-1.34673 c 0.813687,-1.54208 2.213182,-2.86995 3.770006,-3.57706 0.849294,-0.38574 1.743728,-0.49062 4.250632,-0.49841 1.74625,-0.005 3.353593,-0.12419 3.571875,-0.26392 0.316296,-0.20247 -1.026322,-1.678947 -6.61271,-7.271988 -3.855273,-3.859863 -7.150799,-7.017932 -7.323392,-7.017932 -0.932791,0 -5.329338,8.725659 -7.065644,14.02292 -2.03562,6.21042 -2.810754,11.17207 -2.810754,17.99166 0,6.84039 0.772091,11.76161 2.835162,18.07099 6.776208,20.72333 25.070818,35.91096 46.906504,38.94035 3.409458,0.47302 11.626208,0.48382 15.081248,0.0198 z m 41.79379,-27.24836 c 4.06778,-6.73441 6.76318,-14.43755 7.82905,-22.37447 0.47922,-3.5685 0.47922,-11.24817 0,-14.81667 -3.52692,-26.263005 -24.08807,-46.548918 -50.40965,-49.734877 -2.88632,-0.349361 -10.35672,-0.349361 -13.243045,0 -6.243998,0.755772 -12.727676,2.641173 -18.24931,5.306752 -3.830249,1.849057 -7.14375,3.844476 -7.14375,4.302022 0,0.174654 3.736512,4.047146 8.303363,8.605533 5.967217,5.956166 8.442357,8.261509 8.797396,8.193892 0.423111,-0.08058 0.513024,-0.41657 0.626324,-2.340477 0.07276,-1.235512 0.236122,-2.407365 0.36303,-2.604112 0.659955,-1.02317 1.602832,-1.097483 13.924472,-1.097483 12.32164,0 13.26451,0.07431 13.92447,1.097483 0.12691,0.196747 0.29027,1.369756 0.36303,2.606683 l 0.13229,2.248959 2.39508,0.132291 c 4.30974,0.238049 4.61638,0.762834 4.61638,7.900694 0,5.53082 -0.0666,5.32847 1.75406,5.32847 0.95117,0 2.21469,-1.006948 2.21469,-1.764972 0,-0.460208 1.08221,-0.880858 2.26618,-0.880858 h 0.90882 v -1.426901 c 0,-1.057071 0.10847,-1.468525 0.41851,-1.5875 0.59898,-0.229849 5.20942,-0.19104 5.58377,0.047 0.17256,0.109728 0.35115,0.792512 0.39687,1.517304 l 0.0831,1.317802 1.28966,0.148103 c 1.39073,0.159711 2.01763,0.703302 2.01763,1.74951 0,0.448332 0.18918,0.644682 0.72761,0.755212 1.8735,0.38459 2.70961,0.71027 3.74034,1.45693 1.22871,0.89007 2.54053,2.76959 2.94222,4.21549 0.1571,0.5655 0.26038,7.42693 0.26127,17.35747 0.002,18.63245 0.0462,18.17436 -1.98551,20.4341 -0.65341,0.72675 -1.18801,1.42044 -1.18801,1.54154 0,0.34851 4.31848,4.59686 4.67275,4.59686 0.17535,0 0.92544,-1.0043 1.66687,-2.23178 z m -45.42808,-6.25154 c 1.5517,-0.30031 3.10512,-0.93084 3.10512,-1.26037 0,-0.13513 -0.18303,-0.39759 -0.40673,-0.58325 -0.3304,-0.27421 -0.76489,-0.26787 -2.3151,0.0337 -1.04961,0.20422 -3.15853,0.35968 -4.6865,0.34547 -2.35716,-0.0219 -3.12363,-0.14562 -5.058237,-0.81632 -5.211617,-1.80677 -9.227949,-5.84892 -10.857941,-10.92775 -0.767067,-2.39008 -0.951887,-6.91742 -0.381601,-9.34771 0.457129,-1.94807 0.251984,-2.93499 -0.576895,-2.77536 -1.470551,0.2832 -2.061451,8.11638 -0.894249,11.85444 0.93704,3.00095 2.30745,5.37845 4.384056,7.60584 4.746797,5.09146 10.997227,7.16619 17.688077,5.87126 z m -0.91696,-4.12221 c 0.37331,-0.1 0.57653,-0.32847 0.52631,-0.5917 -0.0682,-0.35759 -0.63071,-0.4554 -3.38625,-0.58884 -3.6134,-0.17499 -5.059521,-0.58354 -7.414397,-2.09466 -3.872349,-2.48488 -6.380292,-7.5993 -5.965367,-12.16511 0.165557,-1.82176 -0.06512,-2.55705 -0.722995,-2.3046 -0.660239,0.25336 -0.855086,3.32011 -0.368023,5.79237 1.409653,7.15521 7.246414,12.08269 14.341352,12.1072 1.30968,0.005 2.6549,-0.0651 2.98937,-0.15466 z m 15.92833,-17.14644 c 0,-1.36026 -1.17561,-4.80949 -2.3042,-6.76053 -0.54899,-0.94907 -2.00455,-2.73084 -3.24792,-3.97584 -2.59686,-2.60027 -5.30299,-4.17598 -8.63569,-5.02834 -2.43376,-0.62245 -2.74552,-0.63805 -2.74552,-0.13741 0,0.54569 1.55284,1.64091 2.64583,1.86609 1.45258,0.29928 4.48901,1.79744 6.08542,3.00253 2.79612,2.11072 4.73162,4.9222 5.94271,8.63229 0.94505,2.89506 2.25937,4.2919 2.25937,2.40121 z m -46.020102,-8.62193 c 0.447548,-0.23952 0.511773,-0.57155 0.511773,-2.64583 0,-3.54821 0.222229,-3.43027 -6.463392,-3.43027 -4.560914,0 -5.469993,0.0649 -5.820833,0.41577 -0.315386,0.31539 -0.415775,0.98159 -0.415775,2.75923 0,1.77763 0.100389,2.44384 0.415775,2.75922 0.350924,0.35093 1.261501,0.41578 5.838227,0.41578 3.231859,0 5.629203,-0.11065 5.934225,-0.2739 z"
         id="path968" />
      <path
         style="fill:#fd0202;stroke-width:0.264583"
         d="M 98.4762,197.10985 C 82.922229,195.60355 69.282863,190.33175 56.874122,181.03007 53.055214,178.16739 45.033259,170.20926 42.207656,166.4803 33.512658,155.00547 28.308985,142.37722 26.267021,127.79566 c -0.645032,-4.60614 -0.645032,-14.97303 0,-19.57917 C 28.639079,91.27774 35.559178,76.323501 46.504907,64.4827 59.505393,50.419116 75.810743,41.977236 95.224995,39.258516 c 4.606139,-0.645032 14.973025,-0.645032 19.579165,0 14.58157,2.041964 27.20981,7.245637 38.68464,15.940635 3.72897,2.825603 11.68709,10.847558 14.54977,14.666466 8.55938,11.418491 13.36304,22.989114 15.59222,37.557123 0.77914,5.09185 0.84564,15.29748 0.13274,20.37292 -2.03483,14.48687 -7.0321,26.77566 -15.42203,37.92428 -12.86986,17.1016 -31.77269,28.07383 -53.40505,30.99919 -3.74538,0.50649 -12.99713,0.7261 -16.46025,0.39072 z m 10.904,-21.69315 c 6.52069,-0.5403 13.21225,-2.23552 19.18392,-4.86001 3.35223,-1.47326 8.30435,-4.37546 8.40476,-4.92562 0.0412,-0.22588 -4.00908,-4.4721 -9.40102,-9.85573 l -9.47346,-9.45885 H 91.611712 c -29.305168,0 -27.658951,0.0951 -29.881647,-1.72623 -0.666398,-0.54606 -1.435148,-1.54802 -1.875076,-2.44391 l -0.745619,-1.5184 v -17.19792 c 0,-16.9716 0.0074,-17.21389 0.561636,-18.41219 0.678987,-1.46799 2.101387,-2.93978 3.612578,-3.73803 0.963277,-0.50883 1.619388,-0.60384 4.755473,-0.68863 2.529147,-0.0684 3.638021,-0.192 3.638021,-0.40558 0,-0.16898 -3.143456,-3.449005 -6.985455,-7.288956 -4.705885,-4.703371 -7.113781,-6.932483 -7.378687,-6.830828 -0.216278,0.08299 -1.011208,1.173991 -1.766517,2.424438 -7.658056,12.678306 -10.027681,28.581596 -6.447943,43.274156 1.819739,7.46888 5.274066,14.71643 10.043636,21.07264 1.930942,2.57329 6.442128,7.27372 9.142423,9.52597 11.222892,9.3607 26.624171,14.25278 41.095665,13.05368 z m 45.30979,-28.30504 c 5.73091,-9.62217 8.59007,-21.80071 7.7442,-32.98626 -0.1705,-2.25459 -0.65141,-5.75871 -1.0687,-7.78694 -4.4595,-21.675388 -21.16179,-39.02703 -42.59258,-44.248489 -4.83814,-1.178777 -8.44207,-1.597142 -13.75833,-1.597142 -8.874095,0 -16.648961,1.712612 -24.535201,5.404501 -3.277674,1.534422 -7.198082,3.867727 -7.40514,4.407313 -0.224401,0.584777 16.279427,17.048993 16.991381,16.950602 0.466603,-0.06448 0.545877,-0.329826 0.670501,-2.244251 0.117862,-1.810552 0.246359,-2.282918 0.773724,-2.844271 l 0.632391,-0.67315 h 12.872344 12.87234 l 0.63239,0.67315 c 0.52737,0.561353 0.65586,1.033719 0.77372,2.844271 l 0.14134,2.171121 2.26276,0.132291 c 2.4414,0.142735 3.32579,0.521417 4.1497,1.776836 0.39363,0.599784 0.48742,1.54168 0.599,6.015585 l 0.13229,5.304453 1.49937,0.0787 c 0.82466,0.0433 1.61279,0.22188 1.75141,0.39688 0.22788,0.2877 2.17318,5.31483 2.17318,5.61606 0,0.30966 -0.98693,0.0449 -3.96875,-1.06455 -1.75995,-0.65484 -3.25383,-1.19062 -3.31975,-1.19062 -0.51191,0 0.27453,0.82372 2.65829,2.78431 1.52797,1.25672 2.77812,2.38649 2.77812,2.51061 0,0.30564 -0.45315,0.41708 -3.83645,0.94347 -4.71866,0.73416 -4.63146,0.99888 0.60246,1.82883 1.64105,0.26022 3.05384,0.58659 3.13955,0.72526 0.0857,0.13868 -0.30334,0.62812 -0.86454,1.08764 -3.22346,2.63946 -4.68029,4.01239 -4.32623,4.07711 0.21473,0.0392 1.81709,-0.46183 3.56078,-1.11351 1.7437,-0.65168 3.26511,-1.09013 3.38091,-0.97433 0.1158,0.1158 -0.32834,1.62998 -0.98696,3.36485 -1.81501,4.78089 -1.69135,4.86929 1.45128,1.03763 1.19352,-1.4552 2.30408,-2.64583 2.46789,-2.64583 0.17296,0 0.54875,1.38687 0.89617,3.30729 0.32907,1.81901 0.66636,3.48589 0.74952,3.70417 0.24936,0.65447 0.53101,-0.13562 0.89604,-2.51354 0.48567,-3.16383 0.82533,-4.63021 1.07251,-4.63021 0.12186,0 1.2498,1.25016 2.50652,2.77812 1.96059,2.38376 2.7843,3.1702 2.7843,2.65829 0,-0.0659 -0.53578,-1.5598 -1.19062,-3.31974 -1.10264,-2.96345 -1.37388,-3.96875 -1.07079,-3.96875 0.0659,0 1.57335,0.54082 3.34986,1.20182 1.77651,0.66101 3.41396,1.16641 3.63878,1.12311 0.24813,-0.0478 -0.76606,-1.05109 -2.58073,-2.55303 -1.64422,-1.36088 -2.88912,-2.56785 -2.76643,-2.68216 0.12268,-0.11431 1.76125,-0.46419 3.64127,-0.77751 1.88002,-0.31332 3.50363,-0.62247 3.60804,-0.687 0.73604,-0.4549 0.80304,0.91786 0.72567,14.86841 l -0.079,14.2449 -0.74113,1.50921 c -0.40761,0.83006 -1.09222,1.80464 -1.52135,2.16573 -0.42913,0.36108 -0.78023,0.81055 -0.78023,0.9988 0,0.52412 4.31129,4.74171 4.7625,4.659 0.21828,-0.04 1.14097,-1.32208 2.05041,-2.84903 z m -8.13583,-36.66656 c -1.81901,-0.33714 -3.33706,-0.61931 -3.37344,-0.62705 -0.0364,-0.008 -0.0605,-0.16289 -0.0535,-0.34479 0.007,-0.1819 0.93186,-1.07575 2.05533,-1.98633 2.54551,-2.06314 3.55608,-2.99499 3.40829,-3.14278 -0.063,-0.063 -1.60391,0.42525 -3.42415,1.08511 -1.82024,0.65985 -3.44333,1.19973 -3.60686,1.19973 -0.46846,0 -0.36442,-0.48181 0.71416,-3.30729 l 1.01001,-2.64584 1.19596,0.0392 c 2.20693,0.0724 4.61777,1.79667 5.73299,4.1004 0.59697,1.23319 1.02318,4.48372 0.73726,5.6229 -0.20339,0.81036 -0.0613,0.81014 -4.39606,0.007 z m -13.99595,-7.94949 c -2.75208,-3.335141 -2.80872,-4.201789 -0.28636,-4.381243 l 1.18544,-0.08434 0.13229,-1.455208 0.13229,-1.455208 h 3.04271 3.04271 l 0.13229,1.455208 0.13229,1.455208 1.18543,0.08434 c 1.23926,0.08817 1.85728,0.41243 1.85728,0.974482 0,0.259297 -3.32361,4.524011 -4.52221,5.802711 -0.39025,0.41633 -0.50538,0.0656 -1.04675,-3.1889 -0.91787,-5.517846 -1.0132,-5.543447 -1.85299,-0.49763 -0.31485,1.89177 -0.66658,3.54056 -0.78162,3.66397 -0.11504,0.12341 -1.1738,-0.94462 -2.3528,-2.37339 z m -23.17801,39.05096 c 2.58111,-0.69426 2.97744,-1.07825 2.01338,-1.95071 -0.46926,-0.42467 -0.60414,-0.42556 -2.18281,-0.0144 -2.44841,0.63774 -6.24184,0.58141 -8.84621,-0.13134 -2.949815,-0.8073 -5.200872,-2.14623 -7.545789,-4.48825 -3.494392,-3.49008 -5.203058,-7.95971 -4.91417,-12.85479 0.07729,-1.30969 0.289295,-3.01121 0.471117,-3.78116 0.310631,-1.31542 0.295931,-1.43457 -0.243586,-1.97409 -0.766987,-0.76698 -0.988113,-0.49147 -1.634747,2.03685 -1.776873,6.9475 0.826244,14.68485 6.485062,19.27581 1.907276,1.54736 5.800686,3.47733 7.798793,3.86587 0.80037,0.15563 1.69334,0.33806 1.98438,0.40538 0.84163,0.19469 5.45243,-0.0766 6.61458,-0.3892 z m -1.1555,-4.24471 c 0.50232,-0.26884 0.50907,-0.31981 0.10183,-0.7698 -0.37267,-0.41179 -0.73195,-0.4625 -2.46935,-0.34848 -5.26497,0.3455 -10.444024,-2.55523 -12.682841,-7.10354 -1.096894,-2.22842 -1.374706,-3.5567 -1.382459,-6.6098 -0.005,-1.96678 -0.09947,-2.62447 -0.414557,-2.88597 -0.703445,-0.58381 -1.009089,0.12013 -1.1275,2.59678 -0.206606,4.32136 1.186158,7.90289 4.306493,11.07425 2.12462,2.15937 4.582401,3.5237 7.566894,4.20044 1.84753,0.41894 5.18862,0.33467 6.10149,-0.15388 z m 15.70167,-17.37756 c -0.20705,-1.52498 -1.27261,-4.53002 -2.18128,-6.15156 -1.81265,-3.23469 -5.00301,-6.29144 -8.30743,-7.9595 -2.4674,-1.24554 -6.83558,-2.27912 -6.83558,-1.6174 0,0.44945 1.75728,1.87552 2.51354,2.0398 2.99206,0.64993 6.36456,2.64895 8.61814,5.10834 1.69494,1.84973 3.49561,5.14765 3.83499,7.02376 0.19813,1.09527 1.50656,2.81333 2.14257,2.81333 0.30767,0 0.35117,-0.2542 0.21505,-1.25677 z m -7.51529,-6.37986 c -0.2605,-0.48676 -2.03036,-2.15295 -2.28689,-2.15295 -0.30789,0 0.46535,1.04738 1.34052,1.8158 1.08408,0.95183 1.32039,1.03602 0.94637,0.33715 z m -38.436919,-1.94128 c 0.199758,-0.19976 0.3175,-1.19776 0.3175,-2.69115 0,-3.50725 0.321244,-3.34135 -6.470382,-3.34135 -3.998593,0 -5.685192,0.0906 -5.912118,0.3175 -0.202848,0.20284 -0.3175,1.23472 -0.3175,2.8575 0,1.62277 0.114652,2.65465 0.3175,2.8575 0.449792,0.44979 11.615209,0.44979 12.065,0 z"
         id="path966" />
      <path
         style="fill:#080705;stroke-width:0.264583"
         d="m 63.899931,145.90164 c -1.627502,-0.59644 -3.21959,-2.07452 -4.044942,-3.75529 l -0.745619,-1.5184 v -17.19792 c 0,-16.9716 0.0074,-17.21389 0.561636,-18.41219 0.678482,-1.46689 2.100093,-2.93852 3.612578,-3.73967 0.980734,-0.51949 1.599277,-0.60369 5.055566,-0.68823 l 3.938114,-0.0963 2.213449,2.20195 c 1.217395,1.21108 2.213448,2.35341 2.213448,2.53853 0,0.26104 -1.175647,0.33657 -5.23875,0.33657 -3.721806,0 -5.330684,0.0919 -5.55625,0.3175 -0.202848,0.20284 -0.3175,1.23472 -0.3175,2.8575 0,1.62277 0.114652,2.65465 0.3175,2.8575 0.449792,0.44979 11.615209,0.44979 12.065,0 0.192673,-0.19268 0.3175,-1.12889 0.3175,-2.38125 0,-1.48484 0.09364,-2.06375 0.33383,-2.06375 0.183608,0 2.218026,1.88696 4.520931,4.19324 l 4.1871,4.19324 -0.584809,1.82603 c -0.887336,2.77065 -1.011431,7.02106 -0.289401,9.9123 1.031343,4.12983 3.333649,7.79394 6.523135,10.38155 1.80974,1.46824 5.660512,3.40768 7.798793,3.92787 2.09191,0.50892 6.90345,0.43057 8.86355,-0.14431 2.99021,-0.87702 2.56662,-1.02091 5.4495,1.85115 1.44116,1.43575 2.62029,2.70199 2.62029,2.81386 0,0.11187 -11.87649,0.19501 -26.39219,0.18476 -22.168355,-0.0157 -26.557073,-0.0791 -27.422459,-0.39621 z M 135.66168,133.41805 124.11,121.84253 l -0.18438,-1.68292 c -0.10141,-0.9256 -0.56928,-2.66334 -1.03971,-3.86163 -2.46968,-6.29087 -7.90897,-10.92019 -14.16717,-12.05755 -0.94588,-0.1719 -1.95791,-0.35599 -2.24895,-0.40908 -0.29105,-0.0531 -4.0945,-3.66626 -8.452131,-8.029264 -7.431001,-7.440163 -7.904248,-7.970499 -7.621569,-8.540935 0.165766,-0.334513 0.341383,-1.465609 0.390257,-2.513547 0.07337,-1.573038 0.199353,-2.022956 0.722376,-2.579687 l 0.633513,-0.674344 h 12.872344 12.87234 l 0.63239,0.67315 c 0.52737,0.561353 0.65586,1.033719 0.77372,2.844271 l 0.14134,2.171121 2.26276,0.132291 c 2.4414,0.142735 3.32579,0.521417 4.1497,1.776836 0.39363,0.599784 0.48742,1.54168 0.599,6.015585 l 0.13229,5.304453 1.49937,0.0787 c 0.82466,0.0433 1.61279,0.22188 1.75141,0.39688 0.22788,0.2877 2.17318,5.31483 2.17318,5.61606 0,0.30966 -0.98693,0.0449 -3.96875,-1.06455 -1.75995,-0.65484 -3.25383,-1.19062 -3.31975,-1.19062 -0.51191,0 0.27453,0.82372 2.65829,2.78431 1.52797,1.25672 2.77812,2.38649 2.77812,2.51061 0,0.30564 -0.45315,0.41708 -3.83645,0.94347 -4.71866,0.73416 -4.63146,0.99888 0.60246,1.82883 1.64105,0.26022 3.05384,0.58659 3.13955,0.72526 0.0857,0.13868 -0.30334,0.62812 -0.86454,1.08764 -3.22346,2.63946 -4.68029,4.01239 -4.32623,4.07711 0.21473,0.0392 1.81709,-0.46183 3.56078,-1.11351 1.7437,-0.65168 3.26511,-1.09013 3.38091,-0.97433 0.1158,0.1158 -0.32834,1.62998 -0.98696,3.36485 -1.81501,4.78089 -1.69135,4.86929 1.45128,1.03763 1.19352,-1.4552 2.30408,-2.64583 2.46789,-2.64583 0.17296,0 0.54875,1.38687 0.89617,3.30729 0.32907,1.81901 0.66636,3.48589 0.74952,3.70417 0.24936,0.65447 0.53101,-0.13562 0.89604,-2.51354 0.48567,-3.16383 0.82533,-4.63021 1.07251,-4.63021 0.12186,0 1.2498,1.25016 2.50652,2.77812 1.96059,2.38376 2.7843,3.1702 2.7843,2.65829 0,-0.0659 -0.53578,-1.5598 -1.19062,-3.31974 -1.10264,-2.96345 -1.37388,-3.96875 -1.07079,-3.96875 0.0659,0 1.57335,0.54082 3.34986,1.20182 1.77651,0.66101 3.41396,1.16641 3.63878,1.12311 0.24813,-0.0478 -0.76606,-1.05109 -2.58073,-2.55303 -1.64422,-1.36088 -2.88912,-2.56785 -2.76643,-2.68216 0.12268,-0.11431 1.76125,-0.46419 3.64127,-0.77751 1.88002,-0.31332 3.50363,-0.62247 3.60804,-0.687 0.73604,-0.4549 0.80304,0.91786 0.72567,14.86841 l -0.079,14.2449 -0.74113,1.50921 c -0.71708,1.46025 -2.01418,2.85641 -2.65374,2.85641 -0.17135,0 -5.50981,-5.20898 -11.86324,-11.57552 z m -32.63148,6.55441 c -4.064486,-0.47601 -7.223029,-2.02585 -10.211429,-5.01056 -2.356546,-2.35364 -3.963107,-5.2948 -4.637061,-8.48916 -0.664785,-3.15089 -0.135576,-8.99583 0.814493,-8.99583 0.578255,0 1.785742,1.59953 1.575906,2.08756 -0.100732,0.23429 -0.23949,1.44251 -0.308353,2.68495 -0.406985,7.34293 4.704098,13.7025 12.257974,15.25224 1.78799,0.36681 2.42359,0.383 4.32551,0.11016 l 2.22954,-0.31983 0.77999,0.78 c 0.429,0.429 0.70912,0.89469 0.62248,1.03487 -0.37421,0.60549 -5.04026,1.1477 -7.44905,0.8656 z m -1.28744,-4.12989 c -4.620049,-1.11827 -8.628646,-5.11203 -9.670199,-9.63441 -0.403307,-1.75115 -0.372269,-5.55625 0.04532,-5.55625 0.182859,0 3.724969,3.39617 7.871355,7.54704 6.005574,6.01208 7.458164,7.59873 7.142004,7.80116 -0.57396,0.3675 -3.58274,0.27954 -5.38848,-0.15754 z m 17.7992,-18.5641 c -0.95166,-0.98227 -2.22506,-2.46102 -2.82976,-3.28613 -0.60471,-0.8251 -1.84695,-2.06347 -2.76053,-2.75192 -1.79608,-1.35349 -4.96834,-4.33522 -4.96834,-4.66993 0,-0.36749 0.95573,-0.21914 2.41211,0.37441 3.94205,1.60658 7.22754,4.64133 8.96468,8.28052 1.04495,2.1891 1.53433,3.83899 1.1387,3.83899 -0.12461,0 -1.00519,-0.80368 -1.95686,-1.78594 z m 27.0122,-6.83337 c -1.81901,-0.33714 -3.33706,-0.61931 -3.37344,-0.62705 -0.0364,-0.008 -0.0605,-0.16289 -0.0535,-0.34479 0.007,-0.1819 0.93186,-1.07575 2.05533,-1.98633 2.54551,-2.06314 3.55608,-2.99499 3.40829,-3.14278 -0.063,-0.063 -1.60391,0.42525 -3.42415,1.08511 -1.82024,0.65985 -3.44333,1.19973 -3.60686,1.19973 -0.46846,0 -0.36442,-0.48181 0.71416,-3.30729 l 1.01001,-2.64584 1.19596,0.0392 c 2.20693,0.0724 4.61777,1.79667 5.73299,4.1004 0.59697,1.23319 1.02318,4.48372 0.73726,5.6229 -0.20339,0.81036 -0.0613,0.81014 -4.39606,0.007 z m -13.99595,-7.94949 c -2.75208,-3.335141 -2.80872,-4.201789 -0.28636,-4.381243 l 1.18544,-0.08434 0.13229,-1.455208 0.13229,-1.455208 h 3.04271 3.04271 l 0.13229,1.455208 0.13229,1.455208 1.18543,0.08434 c 1.23926,0.08817 1.85728,0.41243 1.85728,0.974482 0,0.259297 -3.32361,4.524011 -4.52221,5.802711 -0.39025,0.41633 -0.50538,0.0656 -1.04675,-3.1889 -0.91787,-5.517846 -1.0132,-5.543447 -1.85299,-0.49763 -0.31485,1.89177 -0.66658,3.54056 -0.78162,3.66397 -0.11504,0.12341 -1.1738,-0.94462 -2.3528,-2.37339 z"
         id="path964" />
    </g>
  </g>
</svg>
